<svg width="24" height="24" viewBox="0 0 24 24" fill="none" xmlns="http://www.w3.org/2000/svg">
<path d="M6.99195 14.502C6.72674 14.502 6.47238 14.6073 6.28485 14.7949C6.09731 14.9824 5.99195 15.2368 5.99195 15.502V17.284C4.70303 15.8264 3.99169 13.9477 3.99195 12.002C3.99152 11.7079 4.00888 11.414 4.04395 11.122C4.06303 10.9901 4.05555 10.8557 4.02194 10.7267C3.98834 10.5977 3.92929 10.4767 3.84826 10.3709C3.76724 10.2651 3.66588 10.1765 3.55014 10.1104C3.43439 10.0443 3.30661 10.002 3.17428 9.98605C3.04196 9.97005 2.90778 9.98067 2.77962 10.0173C2.65146 10.0539 2.53191 10.1157 2.428 10.1992C2.32409 10.2827 2.23791 10.3861 2.17454 10.5033C2.11116 10.6206 2.07186 10.7493 2.05895 10.882C2.01379 11.2536 1.99141 11.6276 1.99195 12.002C1.99332 14.3882 2.85097 16.6946 4.40895 18.502H2.99195C2.72674 18.502 2.47238 18.6073 2.28485 18.7949C2.09731 18.9824 1.99195 19.2368 1.99195 19.502C1.99195 19.7672 2.09731 20.0215 2.28485 20.2091C2.47238 20.3966 2.72674 20.502 2.99195 20.502H6.99195C7.14834 20.4999 7.30198 20.4606 7.44009 20.3872C7.5782 20.3138 7.69678 20.2085 7.78595 20.08C7.79695 20.065 7.81195 20.053 7.82295 20.037C7.82995 20.027 7.82995 20.015 7.83595 20.005C7.88358 19.9246 7.91929 19.8376 7.94195 19.747C7.95696 19.696 7.96766 19.6438 7.97395 19.591C7.97695 19.561 7.99195 19.534 7.99195 19.502V15.502C7.99195 15.2368 7.8866 14.9824 7.69906 14.7949C7.51152 14.6073 7.25717 14.502 6.99195 14.502ZM8.49195 6.00197H6.70895C8.16691 4.71298 10.0459 4.00165 11.992 4.00197C12.2861 4.00133 12.58 4.01903 12.872 4.05497C13.1354 4.0868 13.4008 4.01265 13.6096 3.84883C13.8184 3.68502 13.9536 3.44496 13.9855 3.18147C14.0173 2.91798 13.9431 2.65263 13.7793 2.44381C13.6155 2.23499 13.3754 2.0998 13.112 2.06797C12.7403 2.02327 12.3663 2.00123 11.992 2.00197C9.60577 2.00334 7.29931 2.86098 5.49195 4.41897V3.00197C5.49195 2.73675 5.3866 2.4824 5.19906 2.29486C5.01152 2.10733 4.75717 2.00197 4.49195 2.00197C4.22674 2.00197 3.97238 2.10733 3.78485 2.29486C3.59731 2.4824 3.49195 2.73675 3.49195 3.00197V7.00197C3.49812 7.06815 3.5112 7.13351 3.53095 7.19697C3.55506 7.32036 3.60295 7.43788 3.67195 7.54297L3.68395 7.55997C3.74991 7.65591 3.83256 7.73923 3.92795 7.80597C3.93895 7.81397 3.94495 7.82597 3.95595 7.83397C3.96995 7.84397 3.98595 7.84697 4.00095 7.85497C4.05788 7.88913 4.1182 7.91728 4.18095 7.93897C4.26516 7.96834 4.35296 7.98617 4.44195 7.99197C4.45995 7.99197 4.47395 8.00197 4.49195 8.00197H8.49195C8.75717 8.00197 9.01152 7.89661 9.19906 7.70908C9.3866 7.52154 9.49195 7.26719 9.49195 7.00197C9.49195 6.73675 9.3866 6.4824 9.19906 6.29486C9.01152 6.10733 8.75717 6.00197 8.49195 6.00197ZM20.452 16.806C20.4278 16.6829 20.3799 16.5657 20.311 16.461L20.3 16.444C20.2337 16.3479 20.1507 16.2646 20.055 16.198C20.044 16.19 20.039 16.178 20.027 16.17C20.017 16.163 20.004 16.163 19.993 16.156C19.8661 16.0852 19.727 16.0391 19.583 16.02C19.551 16.017 19.524 16.002 19.492 16.002H15.492C15.2267 16.002 14.9724 16.1073 14.7848 16.2949C14.5973 16.4824 14.492 16.7368 14.492 17.002C14.492 17.2672 14.5973 17.5215 14.7848 17.7091C14.9724 17.8966 15.2267 18.002 15.492 18.002H17.274C15.8163 19.2908 13.9377 20.0021 11.992 20.002C11.6978 20.0023 11.4039 19.9843 11.112 19.948C10.8485 19.9161 10.5831 19.9903 10.3743 20.1541C10.1655 20.3179 10.0303 20.558 9.99845 20.8215C9.96663 21.085 10.0408 21.3503 10.2046 21.5591C10.3684 21.768 10.6085 21.9031 10.872 21.935C11.2436 21.9797 11.6176 22.002 11.992 22.002C14.3781 22.0006 16.6846 21.143 18.492 19.585V21.002C18.492 21.2672 18.5973 21.5215 18.7848 21.7091C18.9724 21.8966 19.2267 22.002 19.492 22.002C19.7572 22.002 20.0115 21.8966 20.1991 21.7091C20.3866 21.5215 20.492 21.2672 20.492 21.002V17.002C20.4855 16.9358 20.4721 16.8694 20.452 16.806ZM20.992 5.50197C21.2572 5.50197 21.5115 5.39661 21.6991 5.20908C21.8866 5.02154 21.992 4.76719 21.992 4.50197C21.992 4.23675 21.8866 3.9824 21.6991 3.79486C21.5115 3.60733 21.2572 3.50197 20.992 3.50197H16.992C16.9268 3.50833 16.8624 3.5214 16.8 3.54097L16.793 3.54197C16.6717 3.56649 16.5563 3.61401 16.453 3.68197L16.433 3.69497C16.3374 3.76104 16.2544 3.84368 16.188 3.93897C16.18 3.94897 16.168 3.95497 16.16 3.96597C16.153 3.97597 16.153 3.98897 16.146 3.99997C16.0747 4.1277 16.0285 4.26789 16.01 4.41297C16.007 4.44297 15.992 4.46997 15.992 4.50197V8.50197C15.992 8.76719 16.0973 9.02154 16.2848 9.20908C16.4724 9.39661 16.7267 9.50197 16.992 9.50197C17.2572 9.50197 17.5115 9.39661 17.6991 9.20908C17.8866 9.02154 17.992 8.76719 17.992 8.50197V6.71897C19.2809 8.17697 19.9922 10.0559 19.992 12.002C19.9921 12.2961 19.9744 12.59 19.939 12.882C19.9073 13.1451 19.9814 13.4101 20.1448 13.6188C20.3083 13.8274 20.5479 13.9627 20.811 13.995C20.8514 13.9997 20.8922 14.0021 20.933 14.002C21.1771 14.0015 21.4126 13.9118 21.5952 13.7497C21.7777 13.5876 21.8947 13.3643 21.924 13.122C21.9694 12.7504 21.9922 12.3763 21.992 12.002C21.9906 9.61579 21.1329 7.30933 19.575 5.50197H20.992Z" fill="#226E46"/>
</svg>
