<?xml version="1.0" encoding="UTF-8" standalone="no"?>
<!DOCTYPE svg PUBLIC "-//W3C//DTD SVG 1.1//EN" "http://www.w3.org/Graphics/SVG/1.1/DTD/svg11.dtd">
<svg xmlns="http://www.w3.org/2000/svg" xmlns:xlink="http://www.w3.org/1999/xlink" version="1.1" width="1653.5444pt" height="2338.5833pt" viewBox="0 0 1653.5444 2338.5833">
<g enable-background="new">
<g id="Layer-1" data-name="Layer 1">
<path transform="matrix(2.7777777,0,0,-2.7777777,912.9027,1072.4639)" d="M 0 0 L -68.609 58.022 L -20.956 59.84 L 44.122 8.367 Z " fill="#066839"/>
<path transform="matrix(2.7777777,0,0,-2.7777777,912.9027,1072.4639)" stroke-width="1" stroke-linecap="butt" stroke-miterlimit="10" stroke-linejoin="miter" fill="none" stroke="#066839" d="M 0 0 L -68.609 58.022 L -20.956 59.84 L 44.122 8.367 L 0 0 Z "/>
<path transform="matrix(2.7777777,0,0,-2.7777777,722.3236,912.5703)" d="M 0 0 L -56.196 -56.196 " fill="#ffffff"/>
<path transform="matrix(2.7777777,0,0,-2.7777777,722.3236,912.5703)" stroke-width="3" stroke-linecap="butt" stroke-miterlimit="10" stroke-linejoin="miter" fill="none" stroke="#066839" d="M 0 0 L -56.196 -56.196 "/>
<path transform="matrix(2.7777777,0,0,-2.7777777,626.8536,947.38088)" d="M 0 0 L -11 0 L -11 -31.132 L 0 -23.204 Z " fill="#066839"/>
<path transform="matrix(2.7777777,0,0,-2.7777777,0,2338.5833)" d="M 262.667 477.201 L 250.66699 477.201 L 250.66699 489.201 L 262.667 489.201 Z " fill="#066839"/>
<path transform="matrix(2.7777777,0,0,-2.7777777,0,2338.5833)" d="M 280.667 477.201 L 268.667 477.201 L 268.667 489.201 L 280.667 489.201 Z " fill="#066839"/>
<path transform="matrix(2.7777777,0,0,-2.7777777,0,2338.5833)" d="M 280.667 460.201 L 268.667 460.201 L 268.667 472.201 L 280.667 472.201 Z " fill="#066839"/>
<path transform="matrix(2.7777777,0,0,-2.7777777,0,2338.5833)" d="M 263.667 460.201 L 251.66699 460.201 L 251.66699 472.201 L 263.667 472.201 Z " fill="#066839"/>
<symbol id="font_0_4">
<path d="M .21000003 .24100001 C .21000003 .109000008 .16400002 .074 .086 .074 C .057000005 .074 .031 .080000009 .013 .087000008 L 0 .016 C .022 .0070000009 .061000006 0 .093 0 C .20900002 0 .29700003 .055000005 .29700003 .23400001 L .29700003 .685 L .21000003 .685 L .21000003 .24100001 Z "/>
</symbol>
<symbol id="font_0_a">
<path d="M .316 0 L .55700007 .674 L .46400003 .674 L .35 .34100003 C .32 .25300003 .292 .16800002 .273 .09 L .271 .09 C .253 .16900002 .22800002 .25100003 .19900002 .342 L .094000007 .674 L 0 .674 L .22000002 0 L .316 0 Z "/>
</symbol>
<symbol id="font_0_2">
<path d="M .39900003 .21200001 L .47100003 0 L .56400009 0 L .33400003 .674 L .229 .674 L 0 0 L .09 0 L .16 .21200001 L .39900003 .21200001 M .178 .28 L .24400002 .47500003 C .257 .51600006 .268 .55700007 .278 .597 L .28 .597 C .29000003 .558 .3 .518 .315 .47400005 L .381 .28 L .178 .28 Z "/>
</symbol>
<symbol id="font_0_8">
<path d="M 0 .043 C .036 .019000002 .107 0 .17200002 0 C .33100004 0 .40800003 .09 .40800003 .19400002 C .40800003 .293 .35000003 .34800003 .23600003 .39200003 C .143 .428 .102000009 .45900003 .102000009 .522 C .102000009 .568 .137 .623 .22900003 .623 C .29000003 .623 .335 .60300007 .35700003 .591 L .381 .662 C .351 .679 .30100004 .69500008 .23200003 .69500008 C .101 .69500008 .013999999 .61700007 .013999999 .512 C .013999999 .417 .082 .36 .192 .321 C .28300003 .286 .31900005 .25 .31900005 .187 C .31900005 .119 .26700003 .072000008 .178 .072000008 C .11800001 .072000008 .061000006 .092 .022 .116000007 L 0 .043 Z "/>
</symbol>
<symbol id="font_0_1">
<path d="M 0 0 Z "/>
</symbol>
<symbol id="font_0_6">
<path d="M 0 0 L .087 0 L .087 .27 C .10700001 .26500003 .13100001 .264 .157 .264 C .24200002 .264 .317 .289 .363 .33800004 C .397 .37300004 .41500003 .42100004 .41500003 .48200003 C .41500003 .54200008 .393 .591 .356 .623 C .316 .65900006 .25300003 .679 .16700001 .679 C .097 .679 .042000005 .67300006 0 .666 L 0 0 M .087 .60300007 C .102 .60700008 .13100001 .61 .169 .61 C .26500003 .61 .328 .56700006 .328 .47800002 C .328 .38500003 .264 .33400003 .15900001 .33400003 C .13000001 .33400003 .106000009 .33600004 .087 .34100003 L .087 .60300007 Z "/>
</symbol>
<symbol id="font_0_7">
<path d="M 0 0 L .087 0 L .087 .29200004 L .169 .29200004 C .248 .289 .284 .254 .30400003 .16100002 C .323 .07700001 .33800004 .019000002 .349 0 L .43900005 0 C .42500005 .026 .409 .091000009 .38700003 .185 C .37100003 .25500003 .34 .303 .28800003 .321 L .28800003 .324 C .35900004 .34800003 .41500003 .407 .41500003 .49600003 C .41500003 .54800006 .39600004 .59400007 .36200003 .624 C .32000003 .66200008 .26000003 .679 .16700001 .679 C .10700001 .679 .044 .674 0 .665 L 0 0 M .087 .60400006 C .100999999 .60800006 .13100001 .61200007 .17300001 .61200007 C .26500003 .611 .328 .573 .328 .48600004 C .328 .409 .26900003 .358 .176 .358 L .087 .358 L .087 .60400006 Z "/>
</symbol>
<symbol id="font_0_5">
<path d="M .313 .69600006 C .13300002 .69600006 0 .556 0 .34200005 C 0 .13800001 .12500002 0 .303 0 C .47500003 0 .616 .123 .616 .35500003 C .616 .555 .49700005 .69600006 .313 .69600006 M .30900003 .625 C .454 .625 .524 .48500005 .524 .351 C .524 .19800002 .446 .071 .308 .071 C .17100002 .071 .09300001 .20000002 .09300001 .344 C .09300001 .49200005 .165 .625 .30900003 .625 Z "/>
</symbol>
<symbol id="font_0_3">
<path d="M .349 .388 L .087 .388 L .087 .601 L .36400003 .601 L .36400003 .674 L 0 .674 L 0 0 L .379 0 L .379 .07300001 L .087 .07300001 L .087 .316 L .349 .316 L .349 .388 Z "/>
</symbol>
<symbol id="font_0_9">
<path d="M .20500002 0 L .293 0 L .293 .6 L .499 .6 L .499 .674 L 0 .674 L 0 .6 L .20500002 .6 L .20500002 0 Z "/>
</symbol>
<symbol id="font_0_b">
<path d="M .301 0 L .301 .287 L .527 .674 L .428 .674 L .331 .48800005 C .305 .437 .282 .393 .263 .349 L .261 .349 C .24000003 .39600004 .22000002 .437 .19400002 .48800005 L .09900001 .674 L 0 .674 L .21300002 .286 L .21300002 0 L .301 0 Z "/>
</symbol>
<use xlink:href="#font_0_4" transform="matrix(71.973339,0,0,-119.650279,567.22848,1203.665)" fill="#066839"/>
<use xlink:href="#font_0_a" transform="matrix(71.973339,0,0,-119.650279,593.8586,1202.3489)" fill="#066839"/>
<use xlink:href="#font_0_2" transform="matrix(71.973339,0,0,-119.650279,631.42868,1202.3489)" fill="#066839"/>
<use xlink:href="#font_0_8" transform="matrix(71.973339,0,0,-119.650279,676.6999,1203.5454)" fill="#066839"/>
<use xlink:href="#font_0_1" transform="matrix(71.973339,0,0,-119.650279,709.15988,1202.3489)" fill="#066839"/>
<use xlink:href="#font_0_6" transform="matrix(71.973339,0,0,-119.650279,729.8882,1202.3489)" fill="#066839"/>
<use xlink:href="#font_0_7" transform="matrix(71.973339,0,0,-119.650279,768.178,1202.3489)" fill="#066839"/>
<use xlink:href="#font_0_5" transform="matrix(71.973339,0,0,-119.650279,804.23666,1203.665)" fill="#066839"/>
<use xlink:href="#font_0_6" transform="matrix(71.973339,0,0,-119.650279,856.70516,1202.3489)" fill="#066839"/>
<use xlink:href="#font_0_3" transform="matrix(71.973339,0,0,-119.650279,894.99496,1202.3489)" fill="#066839"/>
<use xlink:href="#font_0_7" transform="matrix(71.973339,0,0,-119.650279,930.4058,1202.3489)" fill="#066839"/>
<use xlink:href="#font_0_9" transform="matrix(71.973339,0,0,-119.650279,964.2405,1202.3489)" fill="#066839"/>
<use xlink:href="#font_0_b" transform="matrix(71.973339,0,0,-119.650279,1003.0269,1202.3489)" fill="#066839"/>
<clipPath id="cp1">
<path transform="matrix(2.7777777,0,0,-2.7777777,0,2338.5833)" d="M 0 841.89 L 595.276 841.89 L 595.276 0 L 0 0 Z "/>
</clipPath>
<g clip-path="url(#cp1)">
<path transform="matrix(2.7777777,0,0,-2.7777777,582.3433,1174.8286)" stroke-width="1" stroke-linecap="butt" stroke-miterlimit="10" stroke-linejoin="miter" fill="none" stroke="#066839" d="M 0 0 C 0 -5.686 -1.192 -7.193 -3.213 -7.193 C -3.964 -7.193 -4.638 -6.935 -5.104 -6.634 L -5.441 -9.692 C -4.871 -10.08 -3.861 -10.381 -3.032 -10.381 C -.026 -10.381 2.254 -8.012 2.254 -.302 L 2.254 19.125 L 0 19.125 Z "/>
<path transform="matrix(2.7777777,0,0,-2.7777777,616.603,1202.3489)" stroke-width="1" stroke-linecap="butt" stroke-miterlimit="10" stroke-linejoin="miter" fill="none" stroke="#066839" d="M 0 0 L 6.244 29.032 L 3.834 29.032 L .881 14.688 C .104 10.898 -.622 7.236 -1.114 3.876 L -1.166 3.876 C -1.632 7.279 -2.28 10.812 -3.032 14.731 L -5.752 29.032 L -8.188 29.032 L -2.488 0 Z "/>
<path transform="matrix(2.7777777,0,0,-2.7777777,660.14529,1176.9826)" stroke-width="1" stroke-linecap="butt" stroke-miterlimit="10" stroke-linejoin="miter" fill="none" stroke="#066839" d="M 0 0 L 1.866 -9.132 L 4.275 -9.132 L -1.684 19.9 L -4.405 19.9 L -10.338 -9.132 L -8.006 -9.132 L -6.192 0 Z M -5.726 2.929 L -4.016 11.328 C -3.679 13.094 -3.394 14.86 -3.135 16.583 L -3.083 16.583 C -2.824 14.903 -2.565 13.181 -2.176 11.285 L -.466 2.929 Z "/>
<path transform="matrix(2.7777777,0,0,-2.7777777,676.7008,1198.4006)" stroke-width="1" stroke-linecap="butt" stroke-miterlimit="10" stroke-linejoin="miter" fill="none" stroke="#066839" d="M 0 0 C .933 -1.034 2.772 -1.852 4.457 -1.852 C 8.576 -1.852 10.571 2.024 10.571 6.504 C 10.571 10.769 9.068 13.138 6.115 15.033 C 3.705 16.583 2.643 17.919 2.643 20.632 C 2.643 22.614 3.55 24.983 5.933 24.983 C 7.514 24.983 8.68 24.122 9.25 23.604 L 9.872 26.663 C 9.094 27.395 7.799 28.084 6.011 28.084 C 2.617 28.084 .363 24.725 .363 20.202 C .363 16.11 2.125 13.655 4.975 11.975 C 7.333 10.467 8.265 8.917 8.265 6.203 C 8.265 3.274 6.918 1.249 4.612 1.249 C 3.057 1.249 1.581 2.111 .57 3.145 Z "/>
<path transform="matrix(2.7777777,0,0,-2.7777777,729.88699,1202.3489)" stroke-width="1" stroke-linecap="butt" stroke-miterlimit="10" stroke-linejoin="miter" fill="none" stroke="#066839" d="M 0 0 L 2.254 0 L 2.254 11.63 C 2.772 11.415 3.394 11.372 4.068 11.372 C 6.27 11.372 8.213 12.448 9.405 14.559 C 10.286 16.066 10.753 18.134 10.753 20.762 C 10.753 23.346 10.183 25.457 9.224 26.835 C 8.188 28.386 6.555 29.248 4.327 29.248 C 2.513 29.248 1.088 28.989 0 28.687 Z M 2.254 25.974 C 2.643 26.146 3.394 26.275 4.379 26.275 C 6.866 26.275 8.499 24.423 8.499 20.589 C 8.499 16.583 6.84 14.387 4.12 14.387 C 3.368 14.387 2.747 14.473 2.254 14.688 Z "/>
<path transform="matrix(2.7777777,0,0,-2.7777777,768.17636,1202.3489)" stroke-width="1" stroke-linecap="butt" stroke-miterlimit="10" stroke-linejoin="miter" fill="none" stroke="#066839" d="M 0 0 L 2.254 0 L 2.254 12.578 L 4.379 12.578 C 6.426 12.448 7.358 10.941 7.876 6.935 C 8.369 3.317 8.758 .818 9.042 0 L 11.375 0 C 11.012 1.12 10.597 3.92 10.027 7.969 C 9.613 10.984 8.81 13.051 7.462 13.827 L 7.462 13.956 C 9.302 14.99 10.753 17.531 10.753 21.365 C 10.753 23.604 10.26 25.586 9.379 26.878 C 8.292 28.515 6.737 29.248 4.327 29.248 C 2.772 29.248 1.14 29.032 0 28.644 Z M 2.254 26.017 C 2.617 26.189 3.394 26.361 4.482 26.361 C 6.866 26.318 8.499 24.682 8.499 20.934 C 8.499 17.617 6.97 15.42 4.56 15.42 L 2.254 15.42 Z "/>
<path transform="matrix(2.7777777,0,0,-2.7777777,826.7633,1120.3881)" stroke-width="1" stroke-linecap="butt" stroke-miterlimit="10" stroke-linejoin="miter" fill="none" stroke="#066839" d="M 0 0 C -4.664 0 -8.11 -6.03 -8.11 -15.249 C -8.11 -24.036 -4.871 -29.979 -.26 -29.979 C 4.197 -29.979 7.851 -24.682 7.851 -14.688 C 7.851 -6.074 4.768 0 0 0 Z M -.104 -3.059 C 3.653 -3.059 5.467 -9.089 5.467 -14.861 C 5.467 -21.451 3.446 -26.921 -.13 -26.921 C -3.68 -26.921 -5.7 -21.365 -5.7 -15.162 C -5.7 -8.787 -3.835 -3.059 -.104 -3.059 Z "/>
<path transform="matrix(2.7777777,0,0,-2.7777777,856.70028,1202.3489)" stroke-width="1" stroke-linecap="butt" stroke-miterlimit="10" stroke-linejoin="miter" fill="none" stroke="#066839" d="M 0 0 L 2.255 0 L 2.255 11.63 C 2.772 11.415 3.395 11.372 4.068 11.372 C 6.271 11.372 8.214 12.448 9.406 14.559 C 10.287 16.066 10.753 18.134 10.753 20.762 C 10.753 23.346 10.184 25.457 9.225 26.835 C 8.188 28.386 6.556 29.248 4.327 29.248 C 2.514 29.248 1.089 28.989 0 28.687 Z M 2.255 25.974 C 2.644 26.146 3.395 26.275 4.379 26.275 C 6.866 26.275 8.499 24.423 8.499 20.589 C 8.499 16.583 6.841 14.387 4.12 14.387 C 3.369 14.387 2.747 14.473 2.255 14.688 Z "/>
<path transform="matrix(2.7777777,0,0,-2.7777777,920.1091,1155.9242)" stroke-width="1" stroke-linecap="butt" stroke-miterlimit="10" stroke-linejoin="miter" fill="none" stroke="#066839" d="M 0 0 L -6.788 0 L -6.788 9.175 L .389 9.175 L .389 12.319 L -9.043 12.319 L -9.043 -16.713 L .777 -16.713 L .777 -13.568 L -6.788 -13.568 L -6.788 -3.102 L 0 -3.102 Z "/>
<path transform="matrix(2.7777777,0,0,-2.7777777,930.4008,1202.3489)" stroke-width="1" stroke-linecap="butt" stroke-miterlimit="10" stroke-linejoin="miter" fill="none" stroke="#066839" d="M 0 0 L 2.255 0 L 2.255 12.578 L 4.379 12.578 C 6.426 12.448 7.359 10.941 7.877 6.935 C 8.369 3.317 8.758 .818 9.043 0 L 11.375 0 C 11.013 1.12 10.598 3.92 10.027 7.969 C 9.613 10.984 8.81 13.051 7.463 13.827 L 7.463 13.956 C 9.303 14.99 10.753 17.531 10.753 21.365 C 10.753 23.604 10.261 25.586 9.38 26.878 C 8.292 28.515 6.737 29.248 4.327 29.248 C 2.772 29.248 1.141 29.032 0 28.644 Z M 2.255 26.017 C 2.617 26.189 3.395 26.361 4.483 26.361 C 6.866 26.318 8.499 24.682 8.499 20.934 C 8.499 17.617 6.971 15.42 4.561 15.42 L 2.255 15.42 Z "/>
<path transform="matrix(2.7777777,0,0,-2.7777777,978.985,1202.3489)" stroke-width="1" stroke-linecap="butt" stroke-miterlimit="10" stroke-linejoin="miter" fill="none" stroke="#066839" d="M 0 0 L 2.279 0 L 2.279 25.844 L 7.617 25.844 L 7.617 29.032 L -5.312 29.032 L -5.312 25.844 L 0 25.844 Z "/>
<path transform="matrix(2.7777777,0,0,-2.7777777,1024.6852,1202.3489)" stroke-width="1" stroke-linecap="butt" stroke-miterlimit="10" stroke-linejoin="miter" fill="none" stroke="#066839" d="M 0 0 L 0 12.362 L 5.855 29.032 L 3.291 29.032 L .777 21.02 C .104 18.823 -.492 16.928 -.984 15.033 L -1.036 15.033 C -1.58 17.057 -2.099 18.823 -2.772 21.02 L -5.233 29.032 L -7.799 29.032 L -2.28 12.319 L -2.28 0 Z "/>
</g>
<path transform="matrix(2.7777777,0,0,-2.7777777,569.0019,1239.9137)" stroke-width="2" stroke-linecap="butt" stroke-miterlimit="10" stroke-linejoin="miter" fill="none" stroke="#066839" d="M 0 0 L 69.827 0 "/>
<path transform="matrix(2.7777777,0,0,-2.7777777,802.5967,1239.9137)" stroke-width="2" stroke-linecap="butt" stroke-miterlimit="10" stroke-linejoin="miter" fill="none" stroke="#066839" d="M 0 0 L 84.733 0 "/>
<path transform="matrix(2.7777777,0,0,-2.7777777,567.2283,1226.0248)" stroke-width="2" stroke-linecap="butt" stroke-miterlimit="10" stroke-linejoin="miter" fill="none" stroke="#066839" d="M 0 0 L 169.465 0 "/>
<clipPath id="cp2">
<path transform="matrix(2.7777777,0,0,-2.7777777,0,2338.5833)" d="M 0 841.89 L 595.276 841.89 L 595.276 0 L 0 0 Z "/>
</clipPath>
<g clip-path="url(#cp2)">
<path transform="matrix(2.7777777,0,0,-2.7777777,799.52468,1245.8256)" d="M 0 0 C 0 -3.124 -2.532 -5.656 -5.656 -5.656 C -8.78 -5.656 -11.312 -3.124 -11.312 0 C -11.312 3.124 -8.78 5.656 -5.656 5.656 C -2.532 5.656 0 3.124 0 0 " fill="#066839"/>
</g>
</g>
</g>
</svg>
